HIERARCHY
ROOT RootJoint
{
    OFFSET   0.000000   0.000000   0.000000
    CHANNELS 6 Xposition Yposition Zposition Xrotation Yrotation Zrotation
    JOINT pelvis_lowerback
    {
        OFFSET   0.000000   0.093605   0.000000
        CHANNELS 3 Xrotation Yrotation Zrotation
        JOINT lowerback_torso
        {
            OFFSET   0.000000   0.100000   0.000000
            CHANNELS 3 Xrotation Yrotation Zrotation
            JOINT torso_head
            {
                OFFSET   0.000000   0.282350   0.000000
                CHANNELS 3 Xrotation Yrotation Zrotation
                End Site
                {
                    OFFSET   0.000000   0.192650   0.000000
                }
            }
            JOINT rTorso_Clavicle
            {
                OFFSET  -0.001000   0.157500   0.000000
                CHANNELS 3 Xrotation Yrotation Zrotation
                JOINT rShoulder
                {
                    OFFSET  -0.117647   0.000000   0.000000
                    CHANNELS 3 Xrotation Yrotation Zrotation
                    JOINT rElbow
                    {
                        OFFSET  -0.245000   0.000000   0.000000
                        CHANNELS 3 Xrotation Yrotation Zrotation
                        JOINT rWrist
                        {
                            OFFSET  -0.240000   0.000000   0.000000
                            CHANNELS 3 Xrotation Yrotation Zrotation
                            End Site
                            {
                                OFFSET  -0.116353  -0.002500   0.000000
                            }
                        }
                    }
                }
            }
            JOINT lTorso_Clavicle
            {
                OFFSET   0.001000   0.157500   0.000000
                CHANNELS 3 Xrotation Yrotation Zrotation
                JOINT lShoulder
                {
                    OFFSET   0.117647   0.000000   0.000000
                    CHANNELS 3 Xrotation Yrotation Zrotation
                    JOINT lElbow
                    {
                        OFFSET   0.245000   0.000000   0.000000
                        CHANNELS 3 Xrotation Yrotation Zrotation
                        JOINT lWrist
                        {
                            OFFSET   0.240000   0.000000   0.000000
                            CHANNELS 3 Xrotation Yrotation Zrotation
                            End Site
                            {
                                OFFSET   0.116353  -0.002500   0.000000
                            }
                        }
                    }
                }
            }
        }
    }
    JOINT rHip
    {
        OFFSET  -0.100000  -0.051395   0.000000
        CHANNELS 3 Xrotation Yrotation Zrotation
        JOINT rKnee
        {
            OFFSET   0.000000  -0.410000   0.000000
            CHANNELS 3 Xrotation Yrotation Zrotation
            JOINT rAnkle
            {
                OFFSET   0.000000  -0.390000   0.000000
                CHANNELS 3 Xrotation Yrotation Zrotation
                JOINT rToeJoint
                {
                    OFFSET   0.000000  -0.050000   0.130000
                    CHANNELS 3 Xrotation Yrotation Zrotation
                    End Site
                    {
                        OFFSET  -0.010000   0.002000   0.060000
                    }
                }
            }
        }
    }
    JOINT lHip
    {
        OFFSET   0.100000  -0.051395   0.000000
        CHANNELS 3 Xrotation Yrotation Zrotation
        JOINT lKnee
        {
            OFFSET   0.000000  -0.410000   0.000000
            CHANNELS 3 Xrotation Yrotation Zrotation
            JOINT lAnkle
            {
                OFFSET   0.000000  -0.390000   0.000000
                CHANNELS 3 Xrotation Yrotation Zrotation
                JOINT lToeJoint
                {
                    OFFSET   0.000000  -0.050000   0.130000
                    CHANNELS 3 Xrotation Yrotation Zrotation
                    End Site
                    {
                        OFFSET   0.010000   0.002000   0.060000
                    }
                }
            }
        }
    }
}
MOTION
Frames: 5
Frame Time:   0.008333
 -1.592616   0.864940   3.802617  -3.083532 -12.326355   4.996579   4.673109   4.653460  -2.135165  -2.977432   2.162689   0.524710  -1.282032   3.955994   1.184303  -2.238835  11.648256  -6.860165  -5.602505  39.511686  20.682268 179.999787  82.561147 -179.999793 -10.386313   9.597966   3.145991  -4.593872  -3.692442   9.189491 -32.406913   8.270672 -12.127318  -0.000018 -42.052067  -0.000041 -18.317796  -9.319907  14.657474   9.110523   0.726632  -8.639611  31.148343   0.001502   0.000488 -29.300027  -1.204120   1.092170 -10.598606   0.000532   0.002242 -22.835594  -0.719441   0.801541  30.525203   0.000544  -0.000047  -4.706079   5.817757  -3.634884   1.115574  -0.000704  -0.000075
 -1.593818   0.864524   3.797394  -3.119952 -12.407315   5.038420   4.754591   4.636132  -2.109306  -3.031506   2.129880   0.524349  -1.278553   3.979247   1.101679  -2.241621  11.671168  -6.909693  -5.480969  39.589038  20.659689 179.999850  82.567567 -179.999857 -10.380214   9.604581   3.109445  -4.613097  -3.589071   9.121121 -32.266150   8.245512 -12.121786  -0.000012 -42.054443  -0.000030 -18.287513  -9.335449  14.683342   8.952500   0.757176  -8.548271  30.918363   0.001528   0.000357 -29.481857  -1.167455   0.907945 -12.034403   0.000091   0.001955 -22.963878  -0.789994   0.906550  30.197308   0.000968   0.000179  -4.345128   5.779508  -3.750948   1.316160  -0.000654  -0.000296
 -1.595118   0.864600   3.792337  -3.166148 -12.443058   4.980530   4.817503   4.602752  -1.992183  -3.078375   2.085613   0.557645  -1.275743   3.999163   1.024558  -2.225094  11.677152  -6.942902  -5.349108  39.652109  20.641593 179.999895  82.578968 -179.999910 -10.381336   9.603323   3.116337  -4.627271  -3.481430   9.018614 -32.126760   8.237781 -12.135157  -0.000008 -42.057166  -0.000020 -18.255277  -9.357305  14.692705   8.767668   0.766052  -8.345059  30.803607   0.001390   0.000261 -30.013538  -1.164090   0.828999 -10.663708  -0.000921   0.000816 -22.991960  -0.898581   1.102186  29.728047   0.001511   0.000281  -4.063895   5.737688  -3.835287   1.511880  -0.000641  -0.000411
 -1.596445   0.864866   3.787413  -3.199229 -12.458519   4.909179   4.862652   4.567469  -1.870951  -3.129190   2.038045   0.602878  -1.273805   4.017540   0.956418  -2.209574  11.674496  -6.979998  -5.223704  39.705553  20.622598 179.999926  82.590384 -179.999946 -10.382248   9.602304   3.121927  -4.639159  -3.378405   8.928449 -31.995045   8.232841 -12.147453  -0.000006 -42.056933  -0.000017 -18.230015  -9.358417  14.691164   8.569375   0.771344  -8.119865  30.680168   0.001288   0.000169 -30.404952  -1.144290   0.739138  -9.411022  -0.001609   0.000310 -22.980252  -1.008584   1.310898  29.182356   0.002033   0.000296  -3.840349   5.698864  -3.902744   1.687270  -0.000624  -0.000456
 -1.597764   0.865181   3.782611  -3.222602 -12.449424   4.838422   4.897469   4.528486  -1.752892  -3.184366   1.987471   0.650283  -1.271907   4.034533   0.893268  -2.201183  11.667482  -7.023582  -5.108630  39.751438  20.599509 179.999948  82.601410 -179.999969 -10.381289   9.603333   3.116230  -4.650820  -3.283555   8.856317 -31.873654   8.224646 -12.153718  -0.000005 -42.056672  -0.000013 -18.207629  -9.352856  14.689413   8.369948   0.784349  -7.889440  30.550132   0.001197   0.000060 -30.734124  -1.109899   0.648006  -8.020381  -0.002322   0.000445 -22.955060  -1.115402   1.516242  28.606405   0.002452   0.000206  -3.655272   5.662744  -3.959326   1.844767  -0.000598  -0.000449
